<mxfile host="app.diagrams.net" agent="Mozilla/5.0 (Windows NT 10.0; Win64; x64) AppleWebKit/537.36 (KHTML, like Gecko) Chrome/134.0.0.0 Safari/537.36" version="26.1.0">
  <diagram name="Page-1" id="eew-vyPHLmzTsxwFZZyj">
    <mxGraphModel dx="936" dy="588" grid="1" gridSize="10" guides="1" tooltips="1" connect="1" arrows="1" fold="1" page="1" pageScale="1" pageWidth="850" pageHeight="1100" math="0" shadow="0">
      <root>
        <mxCell id="0" />
        <mxCell id="1" parent="0" />
        <mxCell id="clCV47z4bkYm3-3w6lYN-1" value="" style="group;fontSize=9;" vertex="1" connectable="0" parent="1">
          <mxGeometry x="140" y="380" width="678" height="315.1569057176953" as="geometry" />
        </mxCell>
        <mxCell id="yCXSfNRGas55IirnGtBg-3" value="Prefixes" style="graphMlID=n0;shape=swimlane;startSize=20;fillColor=#b7b69e;strokeColor=#000000;strokeWidth=1.0;align=right;spacingRight=10;fontStyle=0;rounded=1;labelBorderColor=none;fontSize=9;" parent="clCV47z4bkYm3-3w6lYN-1" vertex="1">
          <mxGeometry y="215.3109170126149" width="403.73550686458606" height="99.84598870508034" as="geometry" />
        </mxCell>
        <mxCell id="yCXSfNRGas55IirnGtBg-4" value="&lt;span&gt;core:&lt;br&gt;mc:&lt;br&gt;mf:&lt;br&gt;jams:&lt;br&gt;&lt;br&gt;&lt;/span&gt;" style="text;html=1;align=center;verticalAlign=middle;resizable=0;points=[];autosize=1;fontFamily=Courier New;rounded=1;labelBorderColor=none;fontStyle=1;fontSize=9;" parent="yCXSfNRGas55IirnGtBg-3" vertex="1">
          <mxGeometry x="6.146008057903483" y="24.845988705080345" width="50" height="70" as="geometry" />
        </mxCell>
        <mxCell id="yCXSfNRGas55IirnGtBg-5" value="&lt;font&gt;https://w3id.org/polifonia/ON/core/&lt;br&gt;&lt;span&gt;https://w3id.org/polifonia/ON/musical-composition/&lt;/span&gt;&lt;br&gt;&lt;span&gt;https://w3id.org/polifonia/ON/musical-feature/&lt;/span&gt;&lt;br&gt;&lt;span&gt;http://w3id.org/polifonia/ontology/jams/&lt;/span&gt;&lt;br&gt;&lt;br&gt;&lt;/font&gt;" style="text;html=1;align=left;verticalAlign=middle;resizable=0;points=[];autosize=1;fontFamily=Courier New;rounded=1;labelBorderColor=none;fontStyle=0;fontSize=9;" parent="yCXSfNRGas55IirnGtBg-3" vertex="1">
          <mxGeometry x="53.735506864586064" y="24.845988705080345" width="290" height="70" as="geometry" />
        </mxCell>
        <mxCell id="yCXSfNRGas55IirnGtBg-6" value="jams:includesObservation owl:allValuesFrom jams:JAMSScoreObservation" style="graphMlID=n5;shape=rect;rounded=1;arcsize=30;fillColor=#ffff99;strokeColor=#000000;strokeWidth=1.0;dashed=1;dashPattern=1 3;labelBorderColor=none;fontStyle=0;fontSize=9;" parent="clCV47z4bkYm3-3w6lYN-1" vertex="1">
          <mxGeometry x="26.699284009546542" y="98.71655761950214" width="331.7183770883055" height="34.20101208864641" as="geometry" />
        </mxCell>
        <mxCell id="yCXSfNRGas55IirnGtBg-8" value="" style="endArrow=classic;html=1;textDirection=ltr;rounded=1;entryX=0.192;entryY=0.064;entryDx=0;entryDy=0;entryPerimeter=0;labelBorderColor=none;fontStyle=0;fontSize=9;" parent="clCV47z4bkYm3-3w6lYN-1" source="yCXSfNRGas55IirnGtBg-12" edge="1">
          <mxGeometry width="50" height="50" relative="1" as="geometry">
            <mxPoint x="192.5584725536993" y="34.20101208864641" as="sourcePoint" />
            <mxPoint x="193.14100238663488" y="100.90542239317553" as="targetPoint" />
          </mxGeometry>
        </mxCell>
        <mxCell id="yCXSfNRGas55IirnGtBg-9" value="rdfs:subClassOf" style="text;html=1;align=center;verticalAlign=middle;resizable=0;points=[];labelBackgroundColor=#ffffff;rotation=0;rounded=1;labelBorderColor=none;fontStyle=0;fontSize=9;" parent="yCXSfNRGas55IirnGtBg-8" vertex="1" connectable="0">
          <mxGeometry x="-0.2211" relative="1" as="geometry">
            <mxPoint x="19.95" as="offset" />
          </mxGeometry>
        </mxCell>
        <mxCell id="yCXSfNRGas55IirnGtBg-12" value="jams:JAMSAnnotation" style="graphMlID=n4;shape=rect;rounded=1;arcsize=30;fillColor=#ffff00;strokeColor=#000000;strokeWidth=1.0;labelBorderColor=none;fontStyle=0;fontSize=9;" parent="clCV47z4bkYm3-3w6lYN-1" vertex="1">
          <mxGeometry x="135.9236276849642" width="113.26968973747017" height="34.20101208864641" as="geometry" />
        </mxCell>
        <mxCell id="yCXSfNRGas55IirnGtBg-13" value="jams:JAMSObservation" style="graphMlID=n4;shape=rect;rounded=1;arcsize=30;fillColor=#ffff00;strokeColor=#000000;strokeWidth=1.0;labelBorderColor=none;fontStyle=0;fontSize=9;" parent="clCV47z4bkYm3-3w6lYN-1" vertex="1">
          <mxGeometry x="479.77804295942724" width="113.26968973747017" height="34.20101208864641" as="geometry" />
        </mxCell>
        <mxCell id="yCXSfNRGas55IirnGtBg-14" value="" style="graphMlID=e0;rounded=1;endArrow=block;strokeColor=#000080;strokeWidth=1.0;startArrow=oval;startFill=1;endFill=1;exitX=1;exitY=0.5;exitDx=0;exitDy=0;labelBorderColor=none;fontStyle=0;fontSize=9;" parent="clCV47z4bkYm3-3w6lYN-1" source="yCXSfNRGas55IirnGtBg-12" target="yCXSfNRGas55IirnGtBg-13" edge="1">
          <mxGeometry relative="1" as="geometry">
            <mxPoint x="390.7804295942721" y="16.775470188094545" as="sourcePoint" />
            <mxPoint x="512.9498806682578" y="16.711858179679496" as="targetPoint" />
          </mxGeometry>
        </mxCell>
        <mxCell id="yCXSfNRGas55IirnGtBg-15" value="&lt;span style=&quot;color: rgb(0, 0, 128); background-color: rgb(248, 249, 250);&quot;&gt;&lt;font&gt;jams:JAMSIncludesObservation&lt;/font&gt;&lt;/span&gt;" style="text;html=1;align=center;verticalAlign=middle;resizable=0;points=[];labelBackgroundColor=#ffffff;rounded=1;labelBorderColor=none;fontStyle=0;fontSize=9;" parent="yCXSfNRGas55IirnGtBg-14" vertex="1" connectable="0">
          <mxGeometry x="-0.0174" y="2" relative="1" as="geometry">
            <mxPoint as="offset" />
          </mxGeometry>
        </mxCell>
        <mxCell id="yCXSfNRGas55IirnGtBg-24" value="jams:JAMSScoreObservation" style="graphMlID=n4;shape=rect;rounded=1;arcsize=30;fillColor=#ffff00;strokeColor=#000000;strokeWidth=1.0;labelBorderColor=none;fontStyle=0;fontSize=9;" parent="clCV47z4bkYm3-3w6lYN-1" vertex="1">
          <mxGeometry x="463.59665871121723" y="80.83875584589151" width="145.63245823389022" height="34.20101208864641" as="geometry" />
        </mxCell>
        <mxCell id="yCXSfNRGas55IirnGtBg-25" value="jams:ScorePatternOccurence" style="graphMlID=n4;shape=rect;rounded=1;arcsize=30;fillColor=#ffff00;strokeColor=#000000;strokeWidth=1.0;labelBorderColor=none;fontStyle=0;fontSize=9;" parent="clCV47z4bkYm3-3w6lYN-1" vertex="1">
          <mxGeometry x="443.3699284009547" y="168.6731732553698" width="186.08591885441527" height="34.20101208864641" as="geometry" />
        </mxCell>
        <mxCell id="yCXSfNRGas55IirnGtBg-26" value="jams:ofPattern" style="graphMlID=n4;shape=rect;rounded=1;arcsize=30;fillColor=#ffff00;strokeColor=#000000;strokeWidth=1.0;labelBorderColor=none;fontStyle=0;fontSize=9;" parent="clCV47z4bkYm3-3w6lYN-1" vertex="1">
          <mxGeometry x="281.5560859188544" y="168.6731732553698" width="80.90692124105013" height="34.20101208864641" as="geometry" />
        </mxCell>
        <mxCell id="yCXSfNRGas55IirnGtBg-27" value="" style="endArrow=classic;html=1;textDirection=ltr;rounded=1;exitX=0.5;exitY=1;exitDx=0;exitDy=0;labelBorderColor=none;fontStyle=0;fontSize=9;" parent="clCV47z4bkYm3-3w6lYN-1" source="yCXSfNRGas55IirnGtBg-13" target="yCXSfNRGas55IirnGtBg-24" edge="1">
          <mxGeometry width="50" height="50" relative="1" as="geometry">
            <mxPoint x="487.8687350835322" y="67.6247284480054" as="sourcePoint" />
            <mxPoint x="597.0930787589499" y="67.6247284480054" as="targetPoint" />
          </mxGeometry>
        </mxCell>
        <mxCell id="yCXSfNRGas55IirnGtBg-28" value="rdfs:subClassOf" style="text;html=1;align=center;verticalAlign=middle;resizable=0;points=[];labelBackgroundColor=#ffffff;rotation=0;rounded=1;labelBorderColor=none;fontStyle=0;fontSize=9;" parent="yCXSfNRGas55IirnGtBg-27" vertex="1" connectable="0">
          <mxGeometry x="-0.2211" relative="1" as="geometry">
            <mxPoint x="19.95" as="offset" />
          </mxGeometry>
        </mxCell>
        <mxCell id="yCXSfNRGas55IirnGtBg-30" value="" style="endArrow=classic;html=1;textDirection=ltr;rounded=1;exitX=0.5;exitY=1;exitDx=0;exitDy=0;entryX=0.5;entryY=0;entryDx=0;entryDy=0;labelBorderColor=none;fontStyle=0;fontSize=9;" parent="clCV47z4bkYm3-3w6lYN-1" source="yCXSfNRGas55IirnGtBg-24" target="yCXSfNRGas55IirnGtBg-25" edge="1">
          <mxGeometry width="50" height="50" relative="1" as="geometry">
            <mxPoint x="556.6396181384248" y="110.37599355881342" as="sourcePoint" />
            <mxPoint x="556.6396181384248" y="151.5726672110466" as="targetPoint" />
          </mxGeometry>
        </mxCell>
        <mxCell id="yCXSfNRGas55IirnGtBg-31" value="rdfs:subClassOf" style="text;html=1;align=center;verticalAlign=middle;resizable=0;points=[];labelBackgroundColor=#ffffff;rotation=0;rounded=1;labelBorderColor=none;fontStyle=0;fontSize=9;" parent="yCXSfNRGas55IirnGtBg-30" vertex="1" connectable="0">
          <mxGeometry x="-0.2211" relative="1" as="geometry">
            <mxPoint x="5" as="offset" />
          </mxGeometry>
        </mxCell>
        <mxCell id="yCXSfNRGas55IirnGtBg-33" value="xsd:string" style="graphMlID=n6;shape=parallelogram;fillColor=#ccffcc;strokeColor=#000000;strokeWidth=1.0;rounded=1;labelBorderColor=none;fontStyle=0;fontSize=9;" parent="clCV47z4bkYm3-3w6lYN-1" vertex="1">
          <mxGeometry x="597.0930787589499" y="269.7216180627342" width="80.90692124105013" height="31.091829171496737" as="geometry" />
        </mxCell>
        <mxCell id="yCXSfNRGas55IirnGtBg-34" value="" style="graphMlID=e6;rounded=1;endArrow=block;strokeColor=#008000;dashed=1;dashPattern=1 1;strokeWidth=1.0;startArrow=oval;startFill=0;endFill=0;exitX=0.933;exitY=0.974;exitDx=0;exitDy=0;entryX=0.5;entryY=0;entryDx=0;entryDy=0;exitPerimeter=0;labelBorderColor=none;fontStyle=0;fontSize=9;" parent="clCV47z4bkYm3-3w6lYN-1" source="yCXSfNRGas55IirnGtBg-25" target="yCXSfNRGas55IirnGtBg-33" edge="1">
          <mxGeometry relative="1" as="geometry">
            <Array as="points" />
            <mxPoint x="572.0119331742244" y="411.96673652233176" as="sourcePoint" />
            <mxPoint x="600.3293556085919" y="386.31597745584696" as="targetPoint" />
          </mxGeometry>
        </mxCell>
        <mxCell id="yCXSfNRGas55IirnGtBg-35" value="&lt;span style=&quot;color: rgb(0, 128, 0); background-color: rgb(248, 249, 250);&quot;&gt;&lt;font face=&quot;dialog&quot;&gt;jams:hasPatternType&lt;/font&gt;&lt;/span&gt;" style="text;html=1;align=center;verticalAlign=middle;resizable=0;points=[];labelBackgroundColor=#ffffff;rounded=1;labelBorderColor=none;fontStyle=0;fontSize=9;" parent="yCXSfNRGas55IirnGtBg-34" vertex="1" connectable="0">
          <mxGeometry x="-0.087" y="3" relative="1" as="geometry">
            <mxPoint x="14" as="offset" />
          </mxGeometry>
        </mxCell>
        <mxCell id="yCXSfNRGas55IirnGtBg-36" value="" style="graphMlID=e0;rounded=1;endArrow=block;strokeColor=#000080;strokeWidth=1.0;startArrow=oval;startFill=1;endFill=1;exitX=0;exitY=0.5;exitDx=0;exitDy=0;entryX=1;entryY=0.5;entryDx=0;entryDy=0;labelBorderColor=none;fontStyle=0;fontSize=9;" parent="clCV47z4bkYm3-3w6lYN-1" source="yCXSfNRGas55IirnGtBg-25" target="yCXSfNRGas55IirnGtBg-26" edge="1">
          <mxGeometry relative="1" as="geometry">
            <mxPoint x="452.2696897374702" y="202.8741853440162" as="sourcePoint" />
            <mxPoint x="404.5346062052506" y="24.87346333719739" as="targetPoint" />
          </mxGeometry>
        </mxCell>
        <mxCell id="yCXSfNRGas55IirnGtBg-37" value="&lt;span style=&quot;color: rgb(0, 0, 128); background-color: rgb(248, 249, 250);&quot;&gt;&lt;font&gt;jams:ofPattern&lt;/font&gt;&lt;/span&gt;" style="text;html=1;align=center;verticalAlign=middle;resizable=0;points=[];labelBackgroundColor=#ffffff;rounded=1;labelBorderColor=none;fontStyle=0;fontSize=9;" parent="yCXSfNRGas55IirnGtBg-36" vertex="1" connectable="0">
          <mxGeometry x="-0.0174" y="2" relative="1" as="geometry">
            <mxPoint as="offset" />
          </mxGeometry>
        </mxCell>
        <mxCell id="yCXSfNRGas55IirnGtBg-38" value="xsd:float" style="graphMlID=n6;shape=parallelogram;fillColor=#ccffcc;strokeColor=#000000;strokeWidth=1.0;rounded=1;labelBorderColor=none;fontStyle=0;fontSize=9;" parent="clCV47z4bkYm3-3w6lYN-1" vertex="1">
          <mxGeometry x="475.7326968973747" y="269.7216180627342" width="72.81622911694511" height="30.314533442209317" as="geometry" />
        </mxCell>
        <mxCell id="yCXSfNRGas55IirnGtBg-39" value="" style="graphMlID=e6;rounded=1;endArrow=block;strokeColor=#008000;dashed=1;dashPattern=1 1;strokeWidth=1.0;startArrow=oval;startFill=0;endFill=0;exitX=0.5;exitY=1;exitDx=0;exitDy=0;labelBorderColor=none;fontStyle=0;fontSize=9;" parent="clCV47z4bkYm3-3w6lYN-1" source="yCXSfNRGas55IirnGtBg-25" target="yCXSfNRGas55IirnGtBg-38" edge="1">
          <mxGeometry relative="1" as="geometry">
            <Array as="points" />
            <mxPoint x="513.7589498806683" y="203.65148107330361" as="sourcePoint" />
            <mxPoint x="564.7303102625299" y="261.94866076986" as="targetPoint" />
          </mxGeometry>
        </mxCell>
        <mxCell id="yCXSfNRGas55IirnGtBg-40" value="&lt;span style=&quot;color: rgb(0, 128, 0); background-color: rgb(248, 249, 250);&quot;&gt;&lt;font face=&quot;dialog&quot;&gt;jams:hasLocation&lt;/font&gt;&lt;/span&gt;" style="text;html=1;align=center;verticalAlign=middle;resizable=0;points=[];labelBackgroundColor=#ffffff;rounded=1;labelBorderColor=none;fontStyle=0;fontSize=9;" parent="yCXSfNRGas55IirnGtBg-39" vertex="1" connectable="0">
          <mxGeometry x="-0.087" y="3" relative="1" as="geometry">
            <mxPoint x="14" as="offset" />
          </mxGeometry>
        </mxCell>
        <mxCell id="yCXSfNRGas55IirnGtBg-41" value="xsd:float" style="graphMlID=n6;shape=parallelogram;fillColor=#ccffcc;strokeColor=#000000;strokeWidth=1.0;rounded=1;labelBorderColor=none;fontStyle=0;fontSize=9;" parent="clCV47z4bkYm3-3w6lYN-1" vertex="1">
          <mxGeometry x="342.236276849642" y="269.7216180627342" width="75.31625298329357" height="30.314533442209317" as="geometry" />
        </mxCell>
        <mxCell id="yCXSfNRGas55IirnGtBg-42" value="" style="graphMlID=e6;rounded=1;endArrow=block;strokeColor=#008000;dashed=1;dashPattern=1 1;strokeWidth=1.0;startArrow=oval;startFill=0;endFill=0;exitX=0.081;exitY=0.936;exitDx=0;exitDy=0;entryX=0.617;entryY=0.03;entryDx=0;entryDy=0;exitPerimeter=0;entryPerimeter=0;labelBorderColor=none;fontStyle=0;fontSize=9;" parent="clCV47z4bkYm3-3w6lYN-1" source="yCXSfNRGas55IirnGtBg-25" target="yCXSfNRGas55IirnGtBg-41" edge="1">
          <mxGeometry relative="1" as="geometry">
            <Array as="points" />
            <mxPoint x="487.8687350835322" y="202.8741853440162" as="sourcePoint" />
            <mxPoint x="415.8615751789976" y="387.87056891442177" as="targetPoint" />
          </mxGeometry>
        </mxCell>
        <mxCell id="yCXSfNRGas55IirnGtBg-43" value="&lt;font color=&quot;#008000&quot; face=&quot;dialog&quot;&gt;jams:hasPatternComplexity&lt;/font&gt;" style="text;html=1;align=center;verticalAlign=middle;resizable=0;points=[];labelBackgroundColor=#ffffff;rounded=1;labelBorderColor=none;fontStyle=0;fontSize=9;" parent="yCXSfNRGas55IirnGtBg-42" vertex="1" connectable="0">
          <mxGeometry x="-0.087" y="3" relative="1" as="geometry">
            <mxPoint x="14" as="offset" />
          </mxGeometry>
        </mxCell>
        <mxCell id="clCV47z4bkYm3-3w6lYN-2" value="mm:MusicEntity" style="graphMlID=n4;shape=rect;rounded=1;arcsize=30;fillColor=#ffff00;strokeColor=#000000;strokeWidth=1.0;labelBorderColor=none;fontStyle=0;fontSize=9;" vertex="1" parent="1">
          <mxGeometry x="275.0036276849643" y="167" width="113.26968973747017" height="34.20101208864641" as="geometry" />
        </mxCell>
        <mxCell id="clCV47z4bkYm3-3w6lYN-3" value="xsd:double" style="graphMlID=n6;shape=parallelogram;fillColor=#ccffcc;strokeColor=#000000;strokeWidth=1.0;rounded=1;labelBorderColor=none;fontStyle=0;fontSize=9;" vertex="1" parent="1">
          <mxGeometry x="119.00307875894987" y="261.2016180627342" width="80.90692124105013" height="31.091829171496737" as="geometry" />
        </mxCell>
        <mxCell id="clCV47z4bkYm3-3w6lYN-4" value="" style="graphMlID=e6;rounded=1;endArrow=block;strokeColor=#008000;dashed=1;dashPattern=1 1;strokeWidth=1.0;startArrow=oval;startFill=0;endFill=0;exitX=0.5;exitY=1;exitDx=0;exitDy=0;entryX=0.5;entryY=0;entryDx=0;entryDy=0;labelBorderColor=none;fontStyle=0;fontSize=9;" edge="1" parent="1" target="clCV47z4bkYm3-3w6lYN-3" source="clCV47z4bkYm3-3w6lYN-2">
          <mxGeometry relative="1" as="geometry">
            <Array as="points" />
            <mxPoint x="721" y="347" as="sourcePoint" />
            <mxPoint x="704.3293556085919" y="531.3159774558469" as="targetPoint" />
          </mxGeometry>
        </mxCell>
        <mxCell id="clCV47z4bkYm3-3w6lYN-5" value="&lt;font face=&quot;dialog&quot; color=&quot;#008000&quot;&gt;jams:beatsDuration&lt;/font&gt;" style="text;html=1;align=center;verticalAlign=middle;resizable=0;points=[];labelBackgroundColor=#ffffff;rounded=1;labelBorderColor=none;fontStyle=0;fontSize=9;" vertex="1" connectable="0" parent="clCV47z4bkYm3-3w6lYN-4">
          <mxGeometry x="-0.087" y="3" relative="1" as="geometry">
            <mxPoint x="14" as="offset" />
          </mxGeometry>
        </mxCell>
        <mxCell id="clCV47z4bkYm3-3w6lYN-6" value="xsd:string" style="graphMlID=n6;shape=parallelogram;fillColor=#ccffcc;strokeColor=#000000;strokeWidth=1.0;rounded=1;labelBorderColor=none;fontStyle=0;fontSize=9;" vertex="1" parent="1">
          <mxGeometry x="104.00307875894987" y="211.2016180627342" width="80.90692124105013" height="31.091829171496737" as="geometry" />
        </mxCell>
        <mxCell id="clCV47z4bkYm3-3w6lYN-7" value="" style="graphMlID=e6;rounded=1;endArrow=block;strokeColor=#008000;dashed=1;dashPattern=1 1;strokeWidth=1.0;startArrow=oval;startFill=0;endFill=0;exitX=0.25;exitY=1;exitDx=0;exitDy=0;labelBorderColor=none;fontStyle=0;fontSize=9;entryX=0.5;entryY=0;entryDx=0;entryDy=0;" edge="1" parent="1" target="clCV47z4bkYm3-3w6lYN-6" source="clCV47z4bkYm3-3w6lYN-2">
          <mxGeometry relative="1" as="geometry">
            <Array as="points" />
            <mxPoint x="445" y="210" as="sourcePoint" />
            <mxPoint x="224" y="297" as="targetPoint" />
          </mxGeometry>
        </mxCell>
        <mxCell id="clCV47z4bkYm3-3w6lYN-8" value="&lt;font face=&quot;dialog&quot; color=&quot;#008000&quot;&gt;jams:tuneContent&lt;/font&gt;" style="text;html=1;align=center;verticalAlign=middle;resizable=0;points=[];labelBackgroundColor=#ffffff;rounded=1;labelBorderColor=none;fontStyle=0;fontSize=9;" vertex="1" connectable="0" parent="clCV47z4bkYm3-3w6lYN-7">
          <mxGeometry x="-0.087" y="3" relative="1" as="geometry">
            <mxPoint x="14" as="offset" />
          </mxGeometry>
        </mxCell>
        <mxCell id="clCV47z4bkYm3-3w6lYN-9" value="mm:timesig" style="graphMlID=n4;shape=rect;rounded=1;arcsize=30;fillColor=#ffff00;strokeColor=#000000;strokeWidth=1.0;labelBorderColor=none;fontStyle=0;fontSize=9;" vertex="1" parent="1">
          <mxGeometry x="500.0036276849643" y="189" width="113.26968973747017" height="34.20101208864641" as="geometry" />
        </mxCell>
        <mxCell id="clCV47z4bkYm3-3w6lYN-10" value="mm:FormType" style="graphMlID=n4;shape=rect;rounded=1;arcsize=30;fillColor=#ffff00;strokeColor=#000000;strokeWidth=1.0;labelBorderColor=none;fontStyle=0;fontSize=9;" vertex="1" parent="1">
          <mxGeometry x="500.0036276849643" y="239" width="113.26968973747017" height="34.20101208864641" as="geometry" />
        </mxCell>
        <mxCell id="clCV47z4bkYm3-3w6lYN-11" value="mm:hasKey" style="graphMlID=n4;shape=rect;rounded=1;arcsize=30;fillColor=#ffff00;strokeColor=#000000;strokeWidth=1.0;labelBorderColor=none;fontStyle=0;fontSize=9;" vertex="1" parent="1">
          <mxGeometry x="500.0036276849643" y="292.29" width="113.26968973747017" height="34.20101208864641" as="geometry" />
        </mxCell>
        <mxCell id="clCV47z4bkYm3-3w6lYN-12" value="" style="graphMlID=e6;rounded=1;endArrow=block;strokeColor=#008000;dashed=1;dashPattern=1 1;strokeWidth=1.0;startArrow=oval;startFill=0;endFill=0;exitX=1;exitY=0.5;exitDx=0;exitDy=0;entryX=0;entryY=0.5;entryDx=0;entryDy=0;labelBorderColor=none;fontStyle=0;fontSize=9;" edge="1" parent="1" source="clCV47z4bkYm3-3w6lYN-2" target="clCV47z4bkYm3-3w6lYN-9">
          <mxGeometry relative="1" as="geometry">
            <Array as="points" />
            <mxPoint x="333" y="211" as="sourcePoint" />
            <mxPoint x="194" y="277" as="targetPoint" />
          </mxGeometry>
        </mxCell>
        <mxCell id="clCV47z4bkYm3-3w6lYN-13" value="&lt;font face=&quot;dialog&quot; color=&quot;#008000&quot;&gt;jams:timeSignature&lt;/font&gt;" style="text;html=1;align=center;verticalAlign=middle;resizable=0;points=[];labelBackgroundColor=#ffffff;rounded=1;labelBorderColor=none;fontStyle=0;fontSize=9;" vertex="1" connectable="0" parent="clCV47z4bkYm3-3w6lYN-12">
          <mxGeometry x="-0.087" y="3" relative="1" as="geometry">
            <mxPoint x="14" as="offset" />
          </mxGeometry>
        </mxCell>
        <mxCell id="clCV47z4bkYm3-3w6lYN-14" value="" style="graphMlID=e6;rounded=1;endArrow=block;strokeColor=#008000;dashed=1;dashPattern=1 1;strokeWidth=1.0;startArrow=oval;startFill=0;endFill=0;exitX=1;exitY=0.5;exitDx=0;exitDy=0;entryX=0;entryY=0.5;entryDx=0;entryDy=0;labelBorderColor=none;fontStyle=0;fontSize=9;" edge="1" parent="1" source="clCV47z4bkYm3-3w6lYN-2" target="clCV47z4bkYm3-3w6lYN-10">
          <mxGeometry relative="1" as="geometry">
            <Array as="points" />
            <mxPoint x="389" y="194" as="sourcePoint" />
            <mxPoint x="524" y="174" as="targetPoint" />
          </mxGeometry>
        </mxCell>
        <mxCell id="clCV47z4bkYm3-3w6lYN-15" value="&lt;font face=&quot;dialog&quot; color=&quot;#008000&quot;&gt;mm:FormType&lt;/font&gt;" style="text;html=1;align=center;verticalAlign=middle;resizable=0;points=[];labelBackgroundColor=#ffffff;rounded=1;labelBorderColor=none;fontStyle=0;fontSize=9;" vertex="1" connectable="0" parent="clCV47z4bkYm3-3w6lYN-14">
          <mxGeometry x="-0.087" y="3" relative="1" as="geometry">
            <mxPoint x="14" as="offset" />
          </mxGeometry>
        </mxCell>
        <mxCell id="clCV47z4bkYm3-3w6lYN-16" value="" style="graphMlID=e6;rounded=1;endArrow=block;strokeColor=#008000;dashed=1;dashPattern=1 1;strokeWidth=1.0;startArrow=oval;startFill=0;endFill=0;entryX=0;entryY=0.5;entryDx=0;entryDy=0;labelBorderColor=none;fontStyle=0;fontSize=9;" edge="1" parent="1" source="clCV47z4bkYm3-3w6lYN-2" target="clCV47z4bkYm3-3w6lYN-11">
          <mxGeometry relative="1" as="geometry">
            <Array as="points" />
            <mxPoint x="384" y="184" as="sourcePoint" />
            <mxPoint x="524" y="260" as="targetPoint" />
          </mxGeometry>
        </mxCell>
        <mxCell id="clCV47z4bkYm3-3w6lYN-17" value="&lt;font face=&quot;dialog&quot; color=&quot;#008000&quot;&gt;mm:hasKey&lt;/font&gt;" style="text;html=1;align=center;verticalAlign=middle;resizable=0;points=[];labelBackgroundColor=#ffffff;rounded=1;labelBorderColor=none;fontStyle=0;fontSize=9;" vertex="1" connectable="0" parent="clCV47z4bkYm3-3w6lYN-16">
          <mxGeometry x="-0.087" y="3" relative="1" as="geometry">
            <mxPoint x="14" as="offset" />
          </mxGeometry>
        </mxCell>
        <mxCell id="clCV47z4bkYm3-3w6lYN-18" value="tunes:TuneFamily" style="graphMlID=n4;shape=rect;rounded=1;arcsize=30;fillColor=#ffff00;strokeColor=#000000;strokeWidth=1.0;labelBorderColor=none;fontStyle=0;fontSize=9;" vertex="1" parent="1">
          <mxGeometry x="500.0036276849643" y="139" width="113.26968973747017" height="34.20101208864641" as="geometry" />
        </mxCell>
        <mxCell id="clCV47z4bkYm3-3w6lYN-19" value="" style="graphMlID=e6;rounded=1;endArrow=block;strokeColor=#008000;dashed=1;dashPattern=1 1;strokeWidth=1.0;startArrow=oval;startFill=0;endFill=0;exitX=1;exitY=0.5;exitDx=0;exitDy=0;entryX=0;entryY=0.5;entryDx=0;entryDy=0;labelBorderColor=none;fontStyle=0;fontSize=9;" edge="1" parent="1" target="clCV47z4bkYm3-3w6lYN-18" source="clCV47z4bkYm3-3w6lYN-2">
          <mxGeometry relative="1" as="geometry">
            <Array as="points" />
            <mxPoint x="379" y="134" as="sourcePoint" />
            <mxPoint x="194" y="227" as="targetPoint" />
          </mxGeometry>
        </mxCell>
        <mxCell id="clCV47z4bkYm3-3w6lYN-20" value="&lt;font face=&quot;dialog&quot; color=&quot;#008000&quot;&gt;rdf:type&lt;/font&gt;" style="text;html=1;align=center;verticalAlign=middle;resizable=0;points=[];labelBackgroundColor=#ffffff;rounded=1;labelBorderColor=none;fontStyle=0;fontSize=9;" vertex="1" connectable="0" parent="clCV47z4bkYm3-3w6lYN-19">
          <mxGeometry x="-0.087" y="3" relative="1" as="geometry">
            <mxPoint x="14" as="offset" />
          </mxGeometry>
        </mxCell>
        <mxCell id="clCV47z4bkYm3-3w6lYN-21" value="" style="graphMlID=e6;rounded=1;endArrow=block;strokeColor=#008000;dashed=1;dashPattern=1 1;strokeWidth=1.0;startArrow=oval;startFill=0;endFill=0;labelBorderColor=none;fontStyle=0;fontSize=9;" edge="1" parent="1" source="clCV47z4bkYm3-3w6lYN-2" target="yCXSfNRGas55IirnGtBg-12">
          <mxGeometry relative="1" as="geometry">
            <Array as="points" />
            <mxPoint x="351" y="139" as="sourcePoint" />
            <mxPoint x="524" y="302" as="targetPoint" />
          </mxGeometry>
        </mxCell>
        <mxCell id="clCV47z4bkYm3-3w6lYN-22" value="&lt;font face=&quot;dialog&quot; color=&quot;#008000&quot;&gt;rdf:type&lt;/font&gt;" style="text;html=1;align=center;verticalAlign=middle;resizable=0;points=[];labelBackgroundColor=#ffffff;rounded=1;labelBorderColor=none;fontStyle=0;fontSize=9;" vertex="1" connectable="0" parent="clCV47z4bkYm3-3w6lYN-21">
          <mxGeometry x="-0.087" y="3" relative="1" as="geometry">
            <mxPoint x="14" as="offset" />
          </mxGeometry>
        </mxCell>
        <mxCell id="clCV47z4bkYm3-3w6lYN-23" value="xsd:string" style="graphMlID=n6;shape=parallelogram;fillColor=#ccffcc;strokeColor=#000000;strokeWidth=1.0;rounded=1;labelBorderColor=none;fontStyle=0;fontSize=9;" vertex="1" parent="1">
          <mxGeometry x="737.0930787589499" y="142.1116180627342" width="80.90692124105013" height="31.091829171496737" as="geometry" />
        </mxCell>
        <mxCell id="clCV47z4bkYm3-3w6lYN-25" value="xsd:string" style="graphMlID=n6;shape=parallelogram;fillColor=#ccffcc;strokeColor=#000000;strokeWidth=1.0;rounded=1;labelBorderColor=none;fontStyle=0;fontSize=9;" vertex="1" parent="1">
          <mxGeometry x="737.0930787589499" y="239.00161806273422" width="80.90692124105013" height="31.091829171496737" as="geometry" />
        </mxCell>
        <mxCell id="clCV47z4bkYm3-3w6lYN-27" value="xsd:string" style="graphMlID=n6;shape=parallelogram;fillColor=#ccffcc;strokeColor=#000000;strokeWidth=1.0;rounded=1;labelBorderColor=none;fontStyle=0;fontSize=9;" vertex="1" parent="1">
          <mxGeometry x="737.0930787589499" y="189.00161806273422" width="80.90692124105013" height="31.091829171496737" as="geometry" />
        </mxCell>
        <mxCell id="clCV47z4bkYm3-3w6lYN-28" value="xsd:string" style="graphMlID=n6;shape=parallelogram;fillColor=#ccffcc;strokeColor=#000000;strokeWidth=1.0;rounded=1;labelBorderColor=none;fontStyle=0;fontSize=9;" vertex="1" parent="1">
          <mxGeometry x="737.0930787589499" y="292.2916180627342" width="80.90692124105013" height="31.091829171496737" as="geometry" />
        </mxCell>
        <mxCell id="clCV47z4bkYm3-3w6lYN-30" value="" style="graphMlID=e6;rounded=1;endArrow=block;strokeColor=#008000;dashed=1;dashPattern=1 1;strokeWidth=1.0;startArrow=oval;startFill=0;endFill=0;exitX=1;exitY=0.5;exitDx=0;exitDy=0;entryX=0.12;entryY=0.481;entryDx=0;entryDy=0;labelBorderColor=none;fontStyle=0;fontSize=9;entryPerimeter=0;" edge="1" parent="1" target="clCV47z4bkYm3-3w6lYN-23">
          <mxGeometry relative="1" as="geometry">
            <Array as="points" />
            <mxPoint x="613.27" y="158" as="sourcePoint" />
            <mxPoint x="725.27" y="130" as="targetPoint" />
          </mxGeometry>
        </mxCell>
        <mxCell id="clCV47z4bkYm3-3w6lYN-31" value="&lt;font face=&quot;dialog&quot; color=&quot;#008000&quot;&gt;mm:tuneFamilyName&lt;/font&gt;" style="text;html=1;align=center;verticalAlign=middle;resizable=0;points=[];labelBackgroundColor=#ffffff;rounded=1;labelBorderColor=none;fontStyle=0;fontSize=9;" vertex="1" connectable="0" parent="clCV47z4bkYm3-3w6lYN-30">
          <mxGeometry x="-0.087" y="3" relative="1" as="geometry">
            <mxPoint x="14" as="offset" />
          </mxGeometry>
        </mxCell>
        <mxCell id="clCV47z4bkYm3-3w6lYN-33" value="" style="graphMlID=e6;rounded=1;endArrow=block;strokeColor=#008000;dashed=1;dashPattern=1 1;strokeWidth=1.0;startArrow=oval;startFill=0;endFill=0;labelBorderColor=none;fontStyle=0;fontSize=9;" edge="1" parent="1" source="clCV47z4bkYm3-3w6lYN-9" target="clCV47z4bkYm3-3w6lYN-27">
          <mxGeometry relative="1" as="geometry">
            <Array as="points" />
            <mxPoint x="613.27" y="206.6" as="sourcePoint" />
            <mxPoint x="747" y="205.6" as="targetPoint" />
          </mxGeometry>
        </mxCell>
        <mxCell id="clCV47z4bkYm3-3w6lYN-34" value="&lt;font face=&quot;dialog&quot; color=&quot;#008000&quot;&gt;mm:timesig&lt;/font&gt;" style="text;html=1;align=center;verticalAlign=middle;resizable=0;points=[];labelBackgroundColor=#ffffff;rounded=1;labelBorderColor=none;fontStyle=0;fontSize=9;" vertex="1" connectable="0" parent="clCV47z4bkYm3-3w6lYN-33">
          <mxGeometry x="-0.087" y="3" relative="1" as="geometry">
            <mxPoint x="14" as="offset" />
          </mxGeometry>
        </mxCell>
        <mxCell id="clCV47z4bkYm3-3w6lYN-35" value="" style="graphMlID=e6;rounded=1;endArrow=block;strokeColor=#008000;dashed=1;dashPattern=1 1;strokeWidth=1.0;startArrow=oval;startFill=0;endFill=0;labelBorderColor=none;fontStyle=0;fontSize=9;entryX=0.12;entryY=0.486;entryDx=0;entryDy=0;entryPerimeter=0;" edge="1" parent="1" source="clCV47z4bkYm3-3w6lYN-10" target="clCV47z4bkYm3-3w6lYN-25">
          <mxGeometry relative="1" as="geometry">
            <Array as="points" />
            <mxPoint x="613.36" y="256.9" as="sourcePoint" />
            <mxPoint x="737.09" y="255.3" as="targetPoint" />
          </mxGeometry>
        </mxCell>
        <mxCell id="clCV47z4bkYm3-3w6lYN-36" value="&lt;font face=&quot;dialog&quot; color=&quot;#008000&quot;&gt;mm:tuneTypeName&lt;/font&gt;" style="text;html=1;align=center;verticalAlign=middle;resizable=0;points=[];labelBackgroundColor=#ffffff;rounded=1;labelBorderColor=none;fontStyle=0;fontSize=9;" vertex="1" connectable="0" parent="clCV47z4bkYm3-3w6lYN-35">
          <mxGeometry x="-0.087" y="3" relative="1" as="geometry">
            <mxPoint x="14" as="offset" />
          </mxGeometry>
        </mxCell>
        <mxCell id="clCV47z4bkYm3-3w6lYN-37" value="" style="graphMlID=e6;rounded=1;endArrow=block;strokeColor=#008000;dashed=1;dashPattern=1 1;strokeWidth=1.0;startArrow=oval;startFill=0;endFill=0;labelBorderColor=none;fontStyle=0;fontSize=9;entryX=0.093;entryY=0.416;entryDx=0;entryDy=0;entryPerimeter=0;exitX=1;exitY=0.5;exitDx=0;exitDy=0;" edge="1" parent="1" source="clCV47z4bkYm3-3w6lYN-11" target="clCV47z4bkYm3-3w6lYN-28">
          <mxGeometry relative="1" as="geometry">
            <Array as="points" />
            <mxPoint x="623" y="266" as="sourcePoint" />
            <mxPoint x="757" y="264" as="targetPoint" />
          </mxGeometry>
        </mxCell>
        <mxCell id="clCV47z4bkYm3-3w6lYN-38" value="&lt;font face=&quot;dialog&quot; color=&quot;#008000&quot;&gt;mm:tuneKeyName&lt;/font&gt;" style="text;html=1;align=center;verticalAlign=middle;resizable=0;points=[];labelBackgroundColor=#ffffff;rounded=1;labelBorderColor=none;fontStyle=0;fontSize=9;" vertex="1" connectable="0" parent="clCV47z4bkYm3-3w6lYN-37">
          <mxGeometry x="-0.087" y="3" relative="1" as="geometry">
            <mxPoint x="14" as="offset" />
          </mxGeometry>
        </mxCell>
      </root>
    </mxGraphModel>
  </diagram>
</mxfile>
